<mxfile host="app.diagrams.net" agent="Mozilla/5.0 (Windows NT 10.0; Win64; x64) AppleWebKit/537.36 (KHTML, like Gecko) Chrome/135.0.0.0 Safari/537.36" version="26.2.14">
  <diagram name="Halaman-1" id="acuA6mGgj09EvqVeEiXq">
    <mxGraphModel dx="464" dy="776" grid="1" gridSize="10" guides="1" tooltips="1" connect="1" arrows="1" fold="1" page="1" pageScale="1" pageWidth="827" pageHeight="1169" background="light-dark(#ffffff, #c7c2c2)" math="0" shadow="0">
      <root>
        <mxCell id="0" />
        <mxCell id="1" parent="0" />
        <mxCell id="0pXw6D4bPbFG3O7Pt_03-3" value="" style="shape=image;verticalLabelPosition=bottom;labelBackgroundColor=default;verticalAlign=top;aspect=fixed;imageAspect=0;image=data:image/png,iVBORw0KGgoAAAANSUhEUgAAAGQAAABkCAYAAABw4pVUAAAAAXNSR0IArs4c6QAABktJREFUeAHtXTmrNEUUPQbuYOK+gaGBiGCmiYipobGRC+6YKEamYmTiDzASxEgQRTFQcd9BEc0EFUEUV3B3Dszh6+9O11Td7qqu96Zvw+NOVVede+85Xd1d82q6gdiCgWAgGAgGgoH1MXAGgAcAvAPgNwC/AngbwL0ATl8fHX0zvhTAxwD+S/x9AOCiviGuxzuP/k8SQgwFeh/AaeuhpV+m9xeIIWHu7BfmejzzOiHCc/a19dDSL1NewHNCaP+P/cJcj2ePID+sh5Z+mXpOWa/2C3M9nu9znLLuWA8t/TLlbe9HBaK8u/bb3iVnzpdkRHkPwIWVj5kl85sdeo+ZM0cKvyb5dzBa+PkuAKfOzuhkgB75nRyBo9R75qxbXFlH6EVNe+dXFOSwUe+Zs4SQHcZW43Pv/Nw5eG5DW8ycJYSsO4FMh975ZcLb3e2ZqLWYOUsI2d0I59X0zs8dvSfgFjNnCSHrTiDToXd+mfB2d3uGdIuZs4SQ3Y1wXk3v/NzR9545SwhZdwKZDr3zy4S3u7v3zFlCyO5GOK+md36Tou8xc1agEkJW9TVtz/wm58EjaamZ8zBICSE73Ffzc6/8ZucgYmRnA2YA5Ec203z2bvmRnQ3YGkCByoa/1gxk8CWEbKb57N3yIzsbMAMgP7KZ5v13K1DZ1hHJj+yh+Zudj4iRnQ2YAZAf2Uzz2bvlR3Y2YGsABSob/lozkMGXELKZ5rN3y4/sbMAMgPzIZpr3361AZVtHJD+yh+Zvdj5/Df6lSpL4v+iWm4SQbemLucgPLXM98tt3JuirGkc8JIifW25Xm9y+bemsFvYrJmj+hqPltqQgD5rcXm6ZWC3sR0zQXwM4qxb4CM5SgpwN4BuT28Mj8Ry5Kn4z+qcJ/IWGv2paQhB+sfiiyemP4/SjoMdN8CSNKwlvaHD4tBaEMXPhnfXzWINcmkFyeKeWe/KXTTwXcyTV2CxRNTAZG2NkrBafZf5kjjkeq+1yAJ8nEmJSfwN4CcCtAM6ZkZklbCoUY2AsjImxWVyVPwNw2VQnvfudB+DZPckpyd8BPL05Im+esAxUGLKenLnklD7pmzEII2WfAXCux8FRbXsTgOczR55I+B7Ak5sj9XoApxQkpH6yuS7EJDZ90Jf6pSxHC2O/MQd8HPfz3Mylma8XEEGCvgLwBIBr9iRriUw1vXKz41EAXxb6/nTb/ooU4KHVTyHoIQAXGyL2CcLTy+2VDwDj/jCL125Hgv3axZLN8j9bgkk0L8S2zZkAbgHw3Pa7Jrvflrma8qkNJk+rJafIw1QgkZX3Ijt2IR6rsyIMbyLi4QIJMWy190i3pNuyHVnWX5QdDHivBUMxVndxdvBapaluBr4YuX5IiJK7syrBBMgJBngBvm5ElNL5ywmk+FSVAY0K2argAeZnQELI+hGiR1UGJIRsVfAA8zMgIWT9CNGjKgMSQrYqeID5GZAQsn6E6FGVAQkhWxU8wPwMSAhZP0L0qMqAhJCtCh5gfgYkhKwfIXpUZUBCyFYFDzA/AxJC1o8QPaoyICFkq4IHmJ8BCSHrR4geVRmQELJVwQPMz4CEkPUjHLMeXPnNJ+K8tX1HhxIPu7viZYwTvteE3N1T47G1fBpnatH0mPOo2y/ShwDI6aSNIyPE2E/wlAOQK+cnLT3yPLhrSmBr7nP3lCHiebTdmsmdkvubUwT5ZWRFxxTn0Wf3tEdu3VsQuUtkTU5CkCM24kOQEKTtkK95+uiB1WyE/AzgNgDnb34mdgEAvtWGdTbJ2u0s/tLl0nxScTUThGLYjaLYQGq3s/hLl0vzScVlOcuWU0C2niPDbqxr3c7iL10uzTsVl+UsW04B2XqepuzG99C2bmfxly6X5p2Ky3KWLaeAbD1/62c3vvK0dTuLv3S5NO9UXJazbDkFZOt5ceM1g0cMX8RFMcZm+bXb2TiWLpfmk4orK4BtkAKK+t3RP4UTy3e2PMVJ9CkXKyuAbRDklpM7hSvLd7Y8xUn0KRcxK4BtMHZhDsLLCd/H1U+W7JIy/zG/DzT2TefnjRIBbBu+nCVIb8MBXw/r3rjIgaskQpS6HPCxgZMWOVBBLlkJUeoJQjFmP2uSanKRF897caH3i0POyB1PU5NHhvv8Fh2CgWAgGAgGgoFgIBgIBgYM/A/m1LhJYmIEcwAAAABJRU5ErkJggg==;" vertex="1" parent="1">
          <mxGeometry x="220" y="30" width="100" height="100" as="geometry" />
        </mxCell>
        <mxCell id="0pXw6D4bPbFG3O7Pt_03-5" value="&lt;b&gt;&lt;font style=&quot;font-size: 20px;&quot;&gt;Multiprosesor&lt;/font&gt;&lt;/b&gt;" style="shape=trapezoid;perimeter=trapezoidPerimeter;whiteSpace=wrap;html=1;fixedSize=1;" vertex="1" parent="1">
          <mxGeometry x="30" y="750" width="230" height="120" as="geometry" />
        </mxCell>
        <mxCell id="0pXw6D4bPbFG3O7Pt_03-6" value="" style="shape=image;verticalLabelPosition=bottom;labelBackgroundColor=default;verticalAlign=top;aspect=fixed;imageAspect=0;image=data:image/png,iVBORw0KGgoAAAANSUhEUgAAAGQAAABkCAYAAABw4pVUAAAAAXNSR0IArs4c6QAABBpJREFUeAHtnc3LDVEcx7/eNjYWVuKRLGyQhbIhNhJFWXq3s0HEP6BIFtTzUPJYY+M9G08PWciCUmyUjUJJikhE8jJf3VPH6cyZmXPnTOde31PTzL3nNy/3+5nv75x5vYCKFJACUkAKSAEpIAWkQPcKzAdwGsAEgEkNfWlADccAUNOowhk/APitoVUNqOlIDBHSFIw0GozGALkjIMl2SGrbuNwTkGRAqG3jIiBp0hWbAQHJzO0CIiDp7D4MPT85RA6RQ0JOlkPkEDlEDsnMBQIiIEpLIReE6tSoZ+YeAREQpTOlrMxcICACorQUckGoTo16Zu4REAFROlPKyswFAiIgSkshF4Tq1Khn5h4BERClM6WszFwgIAKitBRyQahOjXpm7hEQAVE6U8rKzAUCIiBKSyEXhOrUqGfmHgEREKUzpazMXNA6kEsD9ANDPz7HuguNH1IHsElAkr04YGMMEM6zTy+gaRUKXzyzNxaGmW9K75VCCwHkNKwOOJh1OW0rt4VvV6KWQ1sWBICwTqVjBQSkY8GrVicgVQp1XC8gHQtetToBqVKo5fqpAHYAOANg3DOEDlxZ55uHy+IyuWyVBgqwe3gz0Ivq9+j7+rB3QRtoXSt0fUIYBua6WluioL8KHO4AyCFpXV8BOaS+Vp1Esg25kdAlakMiMLIntD3Qy/L1oqq+Yy9rm3pZETQ0ixQYGAVmFy/+XQNgrYa+NKCG1DK6sGE9BeBnwsbVHBP8L2NqeTL2oHS3QLR6tdDe6XbF2OSKgCQDcjkGCO+us6lquj09dOdiZjuXgAhIe/YexlQph8ghckjI2Ukd8gnAQQDLMro5bXnRrTwC4LvHGS8B7ASwBMDmYnjiifkB4ASAFcV/N64EcBbAL0/cfQAbACwFsAfAO0+MD0wyIDzyXBXTp+5oHp4ttgX5CGCes+6ZAJ47cfudGH486sQ8BDDdiVsM4JsTZ6/fTCcD8sDZoBw/vrEE4ul5XzlgxXzxCM15Zjku2epbUJEpeK3FCF82TgaEK8+92CnpWMnGbrFEfF0Sw+szhGVE5slWXzlnxZhYd5wMCPc+Wj7XMsdpR+ho3w3P5x0RF3l+ENsSW9jjnhimsGdOnD2PmU4GhCu4mCkUnuq+6xGHbcE0S0y2M+4Z7UcA5loxvHvdFZpthf2cx4ze1U0jemicFAhX/LboaVwtuTmt6rJqivpbFc+1vOht71MPMCPkZwC3e/+Q/TUQ9xjANQCvAjFmmWacHIhZkcb/prUyPQSkwd5bJmKb3wuIgNSzbpt73SAtSw4ZBofoD+7TuTzqD+7HMturBiklVW3rqHWMU3uSj/Hyueqqhau+mUbvAYzUpuAEckY6ZaJ3gDSpMWI1oIZ0RjQMh40+SgEpIAWkgBSQAlJACtRW4A+wZNFqe40VjQAAAABJRU5ErkJggg==;" vertex="1" parent="1">
          <mxGeometry x="50" y="30" width="100" height="100" as="geometry" />
        </mxCell>
        <mxCell id="0pXw6D4bPbFG3O7Pt_03-7" value="&lt;h2&gt;&lt;font style=&quot;font-size: 18px;&quot;&gt;System Bus&lt;/font&gt;&lt;/h2&gt;" style="rounded=1;whiteSpace=wrap;html=1;" vertex="1" parent="1">
          <mxGeometry x="30" y="640" width="420" height="60" as="geometry" />
        </mxCell>
      </root>
    </mxGraphModel>
  </diagram>
</mxfile>
